<svg xmlns="http://www.w3.org/2000/svg" viewBox="0 0 960 960" fill="#000"><path d="M480,782q-11,0 -21.5,-3t-19.5,-8q-41,-25 -86,-38t-93,-13q-42,0 -82.5,11T100,762q-21,11 -40.5,-1T40,726v-482q0,-11 5.5,-21T62,208q46,-24 96,-36t102,-12q58,0 113.5,15T480,220v484q51,-32 107,-48t113,-16q36,0 70.5,6t69.5,18v-480q15,5 29.5,10.5T898,208q11,5 16.5,15t5.5,21v482q0,23 -19.5,35t-40.5,1q-37,-20 -77.5,-31T700,720q-48,0 -93,13t-86,38q-9,5 -19.5,8t-21.5,3ZM593,570q-10,9 -21.5,3.5T560,555v-327q0,-4 1.5,-7.5t4.5,-6.5l160,-160q10,-10 22,-5t12,19v343q0,5 -2,8.5t-5,6.5L593,570Z"/></svg>