<svg xmlns="http://www.w3.org/2000/svg" viewBox="0 0 960 960"><path d="M195 725q-35-35-35-85H80V520q0-66 47-113t113-47h160v200h140l140-174V280H560v-80h120q33 0 56.5 23.5T760 280v134L580 640H400q0 50-35 85t-85 35q-50 0-85-35Zm113.5-56.5Q320 657 320 640h-80q0 17 11.5 28.5T280 680q17 0 28.5-11.5ZM200 320v-80h200v80H200Zm475 405q-35-35-35-85t35-85q35-35 85-35t85 35q35 35 35 85t-35 85q-35 35-85 35t-85-35Zm113.5-56.5Q800 657 800 640t-11.5-28.5T760 600q-17 0-28.5 11.5T720 640q0 17 11.5 28.5T760 680q17 0 28.5-11.5ZM160 560h160V440h-80q-33 0-56.5 23.5T160 520v40Z"/></svg>
