<svg xmlns="http://www.w3.org/2000/svg" viewBox="0 0 960 960"><path d="M520 682q44-21 88.5-31.5T700 640q36 0 70.5 6t69.5 18V268q-33-14-68.5-21t-71.5-7q-47 0-93 12t-87 36v394Zm-40 97q-14 0-26.5-3.5T430 766q-39-23-82-34.5T260 720q-42 0-82.5 11T100 762q-21 11-40.5-1T40 726V244q0-11 5.5-21T62 208q47-23 96.5-35.5T260 160q58 0 113.5 15T480 220q51-30 106.5-45T700 160q52 0 101.5 12.5T898 208q11 5 16.5 15t5.5 21v482q0 23-19.5 35t-40.5 1q-37-20-77.5-31T700 720q-45 0-88 11.5T530 766q-11 6-23.5 9.5T480 779Z"/></svg>
