<svg xmlns="http://www.w3.org/2000/svg" viewBox="0 0 32 32"><path d="M26.4 20.32c-.295 0-.588.051-.867.152v-.152c0-4.596-3.366-6.871-5.824-8.532-1.525-1.031-2.842-1.918-2.842-2.908a.88.88 0 0 0-.867-.88.88.88 0 0 0-.867.88c0 .99-1.317 1.877-2.842 2.908-2.458 1.661-5.824 3.936-5.824 8.532v.152A2.6 2.6 0 0 0 3 22.96v6.16c0 .486.388.88.867.88h6.066a.873.873 0 0 0 .867-.88V25.6c0-.972.776-1.76 1.733-1.76.958 0 1.734.788 1.734 1.76v3.52c0 .486.388.88.866.88h1.734a.873.873 0 0 0 .866-.88V25.6c0-.972.776-1.76 1.734-1.76.957 0 1.733.788 1.733 1.76v3.52c0 .486.388.88.867.88h6.066a.873.873 0 0 0 .867-.88v-6.16c0-1.458-1.164-2.64-2.6-2.64ZM6.467 28.24H4.733v-5.28c0-.486.388-.88.867-.88.478 0 .867.394.867.88v5.28Zm20.8 0h-1.734v-5.28c0-.486.389-.88.867-.88s.867.394.867.88v5.28ZM25 3a5 5 0 1 0 0 10 5 5 0 0 0 0-10Zm2.692 5.385H25A.385.385 0 0 1 24.615 8V5.308a.385.385 0 1 1 .77 0v2.307h2.307a.385.385 0 1 1 0 .77Z"/></svg>
