<svg xmlns="http://www.w3.org/2000/svg" viewBox="0 0 960 960" fill="#000"><path d="M440,160L440,40L520,40L520,160L440,160ZM440,920L440,800L520,800L520,920L440,920ZM800,520L800,440L920,440L920,520L800,520ZM40,520L40,440L160,440L160,520L40,520ZM748,268L692,212L762,140L820,198L748,268ZM198,820L140,762L212,692L268,748L198,820ZM762,820L692,748L748,692L820,762L762,820ZM212,268L140,198L198,140L268,212L212,268ZM310,650Q240,580 240,480Q240,380 310,310Q380,240 480,240Q580,240 650,310Q720,380 720,480Q720,580 650,650Q580,720 480,720Q380,720 310,650ZM593.5,593.5Q640,547 640,480Q640,413 593.5,366.5Q547,320 480,320Q413,320 366.5,366.5Q320,413 320,480Q320,547 366.5,593.5Q413,640 480,640Q547,640 593.5,593.5ZM480,480Q480,480 480,480Q480,480 480,480Q480,480 480,480Q480,480 480,480Q480,480 480,480Q480,480 480,480Q480,480 480,480Q480,480 480,480Z"/></svg>